<?xml version="1.0" encoding="iso-8859-1"?>
<!-- Generator: Adobe Illustrator 24.1.0, SVG Export Plug-In . SVG Version: 6.00 Build 0)  -->
<svg version="1.1" xmlns="http://www.w3.org/2000/svg" xmlns:xlink="http://www.w3.org/1999/xlink" x="0px" y="0px"
	 viewBox="0 0 512 512" style="enable-background:new 0 0 512 512;" xml:space="preserve">
<g id="_x30_8_x2C__Ox_x2C__cow_x2C__horns_x2C__milk_x2C__animal_x2C__domestic">
	<g id="XMLID_85_">
		<path id="XMLID_164_" d="M486.45,260.871l-79.11-64.44c52.81-18.12,86.81-65.91,89.89-118.19l3.92-66.65
			c0.28-4.84-2.94-9.18-7.64-10.31c-4.71-1.14-9.55,1.27-11.5,5.7c-18.09,41.23-40.84,71.02-67.63,88.55
			c-16.33,10.68-30.94,14.59-40.91,15.92c-0.09-0.28-0.16-0.59-0.34-1.08c-6.44-17.57-23.15-29.37-41.59-29.37H177.29
			c-18.44,0-35.15,11.8-41.59,29.37c-0.07,0.2-0.13,0.41-0.19,0.63c-24.45-4.22-70.15-23.4-105.52-104.02
			c-1.94-4.43-6.78-6.83-11.5-5.7c-4.7,1.13-7.92,5.47-7.64,10.31l3.92,66.65c3.06,51.94,36.69,99.69,89.37,118.01l-78.51,63.96
			c-9.41,7.52-14.8,18.73-14.8,30.78c0,24.66,22.43,43.31,46.75,38.71l58.37-7.35l31.02,90.98l15.99,61.16
			c4.06,21.18,22.33,36.51,43.57,36.51h98.26c20.29,0,36.48-13.27,43.31-35.5c0.08-0.28-0.73,2.69,16.92-62.12l30.78-90.46
			l58.62,7.38c24.34,4.6,46.75-14.05,46.75-38.71C501.17,279.541,495.78,268.331,486.45,260.871z M425.328,112.265
			c19.914-13.03,37.701-31.768,53.156-55.948l-1.22,20.746c-2.917,49.542-37.156,90.66-84.466,102.884l-13.86-49.103
			C391,128.87,407.448,123.964,425.328,112.265z M34.735,77.064l-1.223-20.795c34.355,53.668,73.275,69.65,97.123,74.156
			l-12.305,49.295C71.496,167.21,37.632,126.224,34.735,77.064z M220.83,461.001c-5.51,0-10-4.49-10-10s4.49-10,10-10
			c5.46,0,10,4.42,10,10C230.83,456.591,226.27,461.001,220.83,461.001z M291.17,461.001c-5.42,0-10-4.4-10-10c0-5.59,4.55-10,10-10
			c5.51,0,10,4.49,10,10C301.17,456.521,296.67,461.001,291.17,461.001z M457.95,310.611c-0.53-0.11-20.13-2.55-67.74-8.55
			c-4.71-0.59-9.19,2.21-10.72,6.7l-30.2,88.75c-22.51-8.28-48.79-16.91-93.22-16.5c-40.46,0.39-68.71,8-93.33,16.59l-30.49-89.42
			c-1.52-4.45-5.97-7.29-10.72-6.69c-47.2,5.95-66.95,8.42-67.48,8.52c-5.74,1.14-11.61-0.32-16.12-4.02
			c-9.47-7.78-9.55-22.38,0.26-30.22c100.28-81.7,94.21-76.67,94.97-77.54c0.73-0.81,1.31-1.74,1.74-2.77
			c0.68-1.65-0.04,0.26,17.79-70.79c0.02-0.1,0.05-0.2,0.07-0.29l1.89-7.59c3.68-9.46,12.72-15.79,22.64-15.79h154.25
			c9.97,0,19.04,6.38,22.69,15.92l21.83,77.36c0.42,1.6,1.25,3.05,2.29,4.18c0.79,0.86-5.8-4.57,95.54,77.97
			c4.62,3.7,7.28,9.23,7.28,15.16C481.17,303.811,470,313.011,457.95,310.611z"/>
		<path id="XMLID_162_" d="M211.167,191.001h-20c-5.522,0-10,4.478-10,10s4.478,10,10,10h20c5.522,0,10-4.478,10-10
			S216.689,191.001,211.167,191.001z"/>
		<path id="XMLID_161_" d="M321.167,191.001h-20c-5.522,0-10,4.478-10,10s4.478,10,10,10h20c5.522,0,10-4.478,10-10
			S326.689,191.001,321.167,191.001z"/>
	</g>
</g>
<g id="Layer_1">
</g>
</svg>
